<svg width="32" height="32" viewBox="0 0 32 32" fill="none" xmlns="http://www.w3.org/2000/svg">
<g clip-path="url(#clip0_17_29)">
<path d="M30.2853 30.2857L25.1228 25.1234" stroke="#FEC92F" stroke-width="3" stroke-linecap="round" stroke-linejoin="round"/>
<path d="M15.1429 28.5712C23.737 28.5712 28.5713 23.7369 28.5713 15.1428C28.5713 6.54856 23.737 1.71429 15.1429 1.71429C6.54862 1.71429 1.71436 6.54856 1.71436 15.1428C1.71436 23.7369 6.54862 28.5712 15.1429 28.5712Z" stroke="#FEC92F" stroke-width="3" stroke-linecap="round" stroke-linejoin="round"/>
<path d="M14.2637 8.57603C14.3331 8.40574 14.4517 8.25999 14.6043 8.15739C14.7569 8.0548 14.9367 8 15.1206 8C15.3045 8 15.4842 8.0548 15.6368 8.15739C15.7895 8.25999 15.9081 8.40574 15.9775 8.57603L17.2767 11.7464L20.7969 12.0555C20.9799 12.0716 21.1539 12.1418 21.2969 12.2572C21.4398 12.3726 21.5452 12.5279 21.5996 12.7033C21.6539 12.8788 21.6549 13.0665 21.6023 13.2425C21.5496 13.4184 21.4458 13.5748 21.304 13.6916L19.1553 15.4572C19.0236 15.565 18.9242 15.7071 18.8681 15.8677C18.8119 16.0284 18.8011 16.2014 18.8369 16.3678L19.5402 19.627C19.5793 19.8071 19.5637 19.9948 19.4954 20.166C19.4271 20.3372 19.3093 20.4841 19.157 20.5879C19.0047 20.6917 18.8249 20.7476 18.6406 20.7485C18.4563 20.7495 18.2759 20.6954 18.1225 20.5931L15.1206 18.585L12.1186 20.5931C11.9653 20.696 11.7847 20.7506 11.6 20.75C11.4154 20.7494 11.2351 20.6935 11.0825 20.5896C10.9298 20.4857 10.8117 20.3386 10.7434 20.167C10.6751 19.9955 10.6596 19.8074 10.6991 19.627L11.4024 16.3678C11.4386 16.2018 11.4284 16.029 11.3729 15.8683C11.3174 15.7077 11.2187 15.5655 11.0877 15.4572L8.93713 13.6916C8.79535 13.5748 8.69153 13.4184 8.6389 13.2425C8.58626 13.0665 8.5872 12.8788 8.64158 12.7033C8.69597 12.5279 8.80134 12.3726 8.94428 12.2572C9.08722 12.1418 9.26126 12.0716 9.44424 12.0555L12.9644 11.7464L14.2637 8.57603Z" fill="#FEC92F"/>
</g>
<defs>
<clipPath id="clip0_17_29">
<rect width="32" height="32" fill="white"/>
</clipPath>
</defs>
</svg>
