<svg width="1072" height="312" viewBox="0 0 1072 312" fill="none" xmlns="http://www.w3.org/2000/svg">
<rect width="1072" height="312" rx="24" fill="white"/>
<path d="M45.65 53V60H44.66V53.87H43.08V53H45.65Z" fill="#7B7B7B"/>
<path d="M90.4 59.13V60H85.37V59.32L88.22 56.57C88.5667 56.2367 88.8 55.95 88.92 55.71C89.04 55.4633 89.1 55.2167 89.1 54.97C89.1 54.6033 88.97 54.32 88.71 54.12C88.4567 53.9133 88.09 53.81 87.61 53.81C86.8367 53.81 86.24 54.0633 85.82 54.57L85.14 53.98C85.4133 53.6467 85.77 53.3867 86.21 53.2C86.6567 53.0133 87.1533 52.92 87.7 52.92C88.4333 52.92 89.0167 53.0967 89.45 53.45C89.8833 53.7967 90.1 54.27 90.1 54.87C90.1 55.2433 90.02 55.5967 89.86 55.93C89.7 56.2633 89.3967 56.6433 88.95 57.07L86.81 59.13H90.4Z" fill="#7B7B7B"/>
<path d="M131.16 55.94C131.847 56.0067 132.37 56.22 132.73 56.58C133.09 56.9333 133.27 57.3867 133.27 57.94C133.27 58.34 133.17 58.7033 132.97 59.03C132.77 59.35 132.47 59.6067 132.07 59.8C131.677 59.9867 131.193 60.08 130.62 60.08C130.12 60.08 129.64 60.0067 129.18 59.86C128.72 59.7067 128.343 59.4967 128.05 59.23L128.51 58.44C128.75 58.6667 129.057 58.85 129.43 58.99C129.803 59.1233 130.2 59.19 130.62 59.19C131.14 59.19 131.543 59.08 131.83 58.86C132.123 58.64 132.27 58.3367 132.27 57.95C132.27 57.5633 132.127 57.2633 131.84 57.05C131.553 56.8367 131.12 56.73 130.54 56.73H129.98V56.03L131.74 53.87H128.37V53H132.99V53.68L131.16 55.94Z" fill="#7B7B7B"/>
<path d="M176.57 58.28H175.24V60H174.27V58.28H170.38V57.58L173.96 53H175.04L171.61 57.42H174.3V55.9H175.24V57.42H176.57V58.28Z" fill="#7B7B7B"/>
<path d="M214.48 55.79C215.48 55.79 216.213 55.98 216.68 56.36C217.153 56.7333 217.39 57.2467 217.39 57.9C217.39 58.3133 217.29 58.6867 217.09 59.02C216.897 59.3467 216.6 59.6067 216.2 59.8C215.807 59.9867 215.32 60.08 214.74 60.08C214.247 60.08 213.77 60.0067 213.31 59.86C212.85 59.7067 212.47 59.4967 212.17 59.23L212.63 58.44C212.87 58.6667 213.177 58.85 213.55 58.99C213.923 59.1233 214.317 59.19 214.73 59.19C215.257 59.19 215.663 59.08 215.95 58.86C216.243 58.6333 216.39 58.3267 216.39 57.94C216.39 57.52 216.23 57.2033 215.91 56.99C215.59 56.77 215.043 56.66 214.27 56.66H212.68L213.05 53H217V53.87H213.89L213.7 55.79H214.48Z" fill="#7B7B7B"/>
<path d="M259.5 55.75C259.96 55.75 260.37 55.8367 260.73 56.01C261.097 56.1833 261.383 56.4333 261.59 56.76C261.797 57.08 261.9 57.45 261.9 57.87C261.9 58.31 261.79 58.6967 261.57 59.03C261.357 59.3633 261.06 59.6233 260.68 59.81C260.307 59.99 259.887 60.08 259.42 60.08C258.48 60.08 257.753 59.7767 257.24 59.17C256.733 58.5633 256.48 57.7033 256.48 56.59C256.48 55.81 256.617 55.1467 256.89 54.6C257.17 54.0467 257.557 53.63 258.05 53.35C258.55 53.0633 259.13 52.92 259.79 52.92C260.13 52.92 260.45 52.9567 260.75 53.03C261.05 53.0967 261.31 53.1967 261.53 53.33L261.15 54.11C260.817 53.89 260.37 53.78 259.81 53.78C259.083 53.78 258.513 54.0067 258.1 54.46C257.687 54.9067 257.48 55.56 257.48 56.42C257.48 56.5267 257.483 56.61 257.49 56.67C257.69 56.37 257.963 56.1433 258.31 55.99C258.663 55.83 259.06 55.75 259.5 55.75ZM259.38 59.27C259.84 59.27 260.213 59.1467 260.5 58.9C260.787 58.6533 260.93 58.3233 260.93 57.91C260.93 57.4967 260.783 57.17 260.49 56.93C260.203 56.6833 259.817 56.56 259.33 56.56C259.017 56.56 258.737 56.62 258.49 56.74C258.25 56.86 258.06 57.0233 257.92 57.23C257.787 57.4367 257.72 57.6667 257.72 57.92C257.72 58.1667 257.783 58.3933 257.91 58.6C258.043 58.8 258.233 58.9633 258.48 59.09C258.733 59.21 259.033 59.27 259.38 59.27Z" fill="#7B7B7B"/>
<path d="M303.58 53V53.68L300.75 60H299.69L302.46 53.87H299.26V55.12H298.3V53H303.58Z" fill="#7B7B7B"/>
<path d="M345.76 56.33C346.16 56.4833 346.467 56.7033 346.68 56.99C346.893 57.2767 347 57.62 347 58.02C347 58.44 346.887 58.8067 346.66 59.12C346.433 59.4267 346.11 59.6633 345.69 59.83C345.27 59.9967 344.777 60.08 344.21 60.08C343.65 60.08 343.16 59.9967 342.74 59.83C342.327 59.6633 342.007 59.4267 341.78 59.12C341.553 58.8067 341.44 58.44 341.44 58.02C341.44 57.62 341.543 57.2767 341.75 56.99C341.963 56.7033 342.27 56.4833 342.67 56.33C342.35 56.1767 342.107 55.9733 341.94 55.72C341.773 55.4667 341.69 55.1667 341.69 54.82C341.69 54.4333 341.793 54.0967 342 53.81C342.213 53.5233 342.51 53.3033 342.89 53.15C343.27 52.9967 343.71 52.92 344.21 52.92C344.717 52.92 345.16 52.9967 345.54 53.15C345.927 53.3033 346.223 53.5233 346.43 53.81C346.643 54.0967 346.75 54.4333 346.75 54.82C346.75 55.16 346.663 55.46 346.49 55.72C346.323 55.9733 346.08 56.1767 345.76 56.33ZM344.21 53.73C343.737 53.73 343.363 53.8333 343.09 54.04C342.817 54.24 342.68 54.5133 342.68 54.86C342.68 55.2067 342.813 55.48 343.08 55.68C343.353 55.88 343.73 55.98 344.21 55.98C344.697 55.98 345.077 55.88 345.35 55.68C345.63 55.48 345.77 55.2067 345.77 54.86C345.77 54.5133 345.627 54.24 345.34 54.04C345.06 53.8333 344.683 53.73 344.21 53.73ZM344.21 59.27C344.763 59.27 345.2 59.1567 345.52 58.93C345.84 58.6967 346 58.3833 346 57.99C346 57.6033 345.84 57.3 345.52 57.08C345.2 56.8533 344.763 56.74 344.21 56.74C343.657 56.74 343.223 56.8533 342.91 57.08C342.597 57.3 342.44 57.6033 342.44 57.99C342.44 58.3833 342.597 58.6967 342.91 58.93C343.223 59.1567 343.657 59.27 344.21 59.27Z" fill="#7B7B7B"/>
<path d="M386.75 52.92C387.69 52.92 388.413 53.2233 388.92 53.83C389.433 54.4367 389.69 55.2967 389.69 56.41C389.69 57.19 389.55 57.8567 389.27 58.41C388.997 58.9567 388.61 59.3733 388.11 59.66C387.617 59.94 387.04 60.08 386.38 60.08C386.04 60.08 385.72 60.0467 385.42 59.98C385.12 59.9067 384.86 59.8033 384.64 59.67L385.02 58.89C385.36 59.11 385.81 59.22 386.37 59.22C387.097 59.22 387.663 58.9967 388.07 58.55C388.483 58.0967 388.69 57.44 388.69 56.58V56.33C388.49 56.63 388.213 56.86 387.86 57.02C387.507 57.1733 387.11 57.25 386.67 57.25C386.21 57.25 385.797 57.1633 385.43 56.99C385.07 56.8167 384.787 56.57 384.58 56.25C384.38 55.9233 384.28 55.55 384.28 55.13C384.28 54.69 384.387 54.3033 384.6 53.97C384.82 53.6367 385.117 53.38 385.49 53.2C385.863 53.0133 386.283 52.92 386.75 52.92ZM386.84 56.44C387.153 56.44 387.433 56.38 387.68 56.26C387.927 56.14 388.117 55.9767 388.25 55.77C388.39 55.5633 388.46 55.3333 388.46 55.08C388.46 54.8333 388.393 54.61 388.26 54.41C388.133 54.2033 387.943 54.04 387.69 53.92C387.443 53.7933 387.143 53.73 386.79 53.73C386.33 53.73 385.957 53.8533 385.67 54.1C385.39 54.3467 385.25 54.6767 385.25 55.09C385.25 55.5033 385.393 55.8333 385.68 56.08C385.967 56.32 386.353 56.44 386.84 56.44Z" fill="#7B7B7B"/>
<path d="M426.65 53V60H425.66V53.87H424.08V53H426.65ZM431.041 60.08C430.488 60.08 429.995 59.94 429.561 59.66C429.135 59.3733 428.798 58.96 428.551 58.42C428.305 57.88 428.181 57.24 428.181 56.5C428.181 55.76 428.305 55.12 428.551 54.58C428.798 54.04 429.135 53.63 429.561 53.35C429.995 53.0633 430.488 52.92 431.041 52.92C431.588 52.92 432.075 53.0633 432.501 53.35C432.935 53.63 433.275 54.04 433.521 54.58C433.768 55.12 433.891 55.76 433.891 56.5C433.891 57.24 433.768 57.88 433.521 58.42C433.275 58.96 432.935 59.3733 432.501 59.66C432.075 59.94 431.588 60.08 431.041 60.08ZM431.041 59.19C431.601 59.19 432.048 58.96 432.381 58.5C432.721 58.04 432.891 57.3733 432.891 56.5C432.891 55.6267 432.721 54.96 432.381 54.5C432.048 54.04 431.601 53.81 431.041 53.81C430.475 53.81 430.021 54.04 429.681 54.5C429.348 54.96 429.181 55.6267 429.181 56.5C429.181 57.3733 429.348 58.04 429.681 58.5C430.021 58.96 430.475 59.19 431.041 59.19Z" fill="#7B7B7B"/>
<path d="M470.65 53V60H469.66V53.87H468.08V53H470.65ZM474.351 53V60H473.361V53.87H471.781V53H474.351Z" fill="#7B7B7B"/>
<path d="M512.65 53V60H511.66V53.87H510.08V53H512.65ZM519.101 59.13V60H514.071V59.32L516.921 56.57C517.268 56.2367 517.501 55.95 517.621 55.71C517.741 55.4633 517.801 55.2167 517.801 54.97C517.801 54.6033 517.671 54.32 517.411 54.12C517.158 53.9133 516.791 53.81 516.311 53.81C515.538 53.81 514.941 54.0633 514.521 54.57L513.841 53.98C514.115 53.6467 514.471 53.3867 514.911 53.2C515.358 53.0133 515.855 52.92 516.401 52.92C517.135 52.92 517.718 53.0967 518.151 53.45C518.585 53.7967 518.801 54.27 518.801 54.87C518.801 55.2433 518.721 55.5967 518.561 55.93C518.401 56.2633 518.098 56.6433 517.651 57.07L515.511 59.13H519.101Z" fill="#7B7B7B"/>
<path d="M554.65 53V60H553.66V53.87H552.08V53H554.65ZM558.861 55.94C559.548 56.0067 560.071 56.22 560.431 56.58C560.791 56.9333 560.971 57.3867 560.971 57.94C560.971 58.34 560.871 58.7033 560.671 59.03C560.471 59.35 560.171 59.6067 559.771 59.8C559.378 59.9867 558.895 60.08 558.321 60.08C557.821 60.08 557.341 60.0067 556.881 59.86C556.421 59.7067 556.045 59.4967 555.751 59.23L556.211 58.44C556.451 58.6667 556.758 58.85 557.131 58.99C557.505 59.1233 557.901 59.19 558.321 59.19C558.841 59.19 559.245 59.08 559.531 58.86C559.825 58.64 559.971 58.3367 559.971 57.95C559.971 57.5633 559.828 57.2633 559.541 57.05C559.255 56.8367 558.821 56.73 558.241 56.73H557.681V56.03L559.441 53.87H556.071V53H560.691V53.68L558.861 55.94Z" fill="#7B7B7B"/>
<path d="M596.65 53V60H595.66V53.87H594.08V53H596.65ZM604.271 58.28H602.941V60H601.971V58.28H598.081V57.58L601.661 53H602.741L599.311 57.42H602.001V55.9H602.941V57.42H604.271V58.28Z" fill="#7B7B7B"/>
<path d="M640.65 53V60H639.66V53.87H638.08V53H640.65ZM644.181 55.79C645.181 55.79 645.915 55.98 646.381 56.36C646.855 56.7333 647.091 57.2467 647.091 57.9C647.091 58.3133 646.991 58.6867 646.791 59.02C646.598 59.3467 646.301 59.6067 645.901 59.8C645.508 59.9867 645.021 60.08 644.441 60.08C643.948 60.08 643.471 60.0067 643.011 59.86C642.551 59.7067 642.171 59.4967 641.871 59.23L642.331 58.44C642.571 58.6667 642.878 58.85 643.251 58.99C643.625 59.1233 644.018 59.19 644.431 59.19C644.958 59.19 645.365 59.08 645.651 58.86C645.945 58.6333 646.091 58.3267 646.091 57.94C646.091 57.52 645.931 57.2033 645.611 56.99C645.291 56.77 644.745 56.66 643.971 56.66H642.381L642.751 53H646.701V53.87H643.591L643.401 55.79H644.181Z" fill="#7B7B7B"/>
<path d="M682.65 53V60H681.66V53.87H680.08V53H682.65ZM687.201 55.75C687.661 55.75 688.071 55.8367 688.431 56.01C688.798 56.1833 689.085 56.4333 689.291 56.76C689.498 57.08 689.601 57.45 689.601 57.87C689.601 58.31 689.491 58.6967 689.271 59.03C689.058 59.3633 688.761 59.6233 688.381 59.81C688.008 59.99 687.588 60.08 687.121 60.08C686.181 60.08 685.455 59.7767 684.941 59.17C684.435 58.5633 684.181 57.7033 684.181 56.59C684.181 55.81 684.318 55.1467 684.591 54.6C684.871 54.0467 685.258 53.63 685.751 53.35C686.251 53.0633 686.831 52.92 687.491 52.92C687.831 52.92 688.151 52.9567 688.451 53.03C688.751 53.0967 689.011 53.1967 689.231 53.33L688.851 54.11C688.518 53.89 688.071 53.78 687.511 53.78C686.785 53.78 686.215 54.0067 685.801 54.46C685.388 54.9067 685.181 55.56 685.181 56.42C685.181 56.5267 685.185 56.61 685.191 56.67C685.391 56.37 685.665 56.1433 686.011 55.99C686.365 55.83 686.761 55.75 687.201 55.75ZM687.081 59.27C687.541 59.27 687.915 59.1467 688.201 58.9C688.488 58.6533 688.631 58.3233 688.631 57.91C688.631 57.4967 688.485 57.17 688.191 56.93C687.905 56.6833 687.518 56.56 687.031 56.56C686.718 56.56 686.438 56.62 686.191 56.74C685.951 56.86 685.761 57.0233 685.621 57.23C685.488 57.4367 685.421 57.6667 685.421 57.92C685.421 58.1667 685.485 58.3933 685.611 58.6C685.745 58.8 685.935 58.9633 686.181 59.09C686.435 59.21 686.735 59.27 687.081 59.27Z" fill="#7B7B7B"/>
<path d="M725.65 53V60H724.66V53.87H723.08V53H725.65ZM732.281 53V53.68L729.451 60H728.391L731.161 53.87H727.961V55.12H727.001V53H732.281Z" fill="#7B7B7B"/>
<path d="M768.65 53V60H767.66V53.87H766.08V53H768.65ZM774.461 56.33C774.861 56.4833 775.168 56.7033 775.381 56.99C775.595 57.2767 775.701 57.62 775.701 58.02C775.701 58.44 775.588 58.8067 775.361 59.12C775.135 59.4267 774.811 59.6633 774.391 59.83C773.971 59.9967 773.478 60.08 772.911 60.08C772.351 60.08 771.861 59.9967 771.441 59.83C771.028 59.6633 770.708 59.4267 770.481 59.12C770.255 58.8067 770.141 58.44 770.141 58.02C770.141 57.62 770.245 57.2767 770.451 56.99C770.665 56.7033 770.971 56.4833 771.371 56.33C771.051 56.1767 770.808 55.9733 770.641 55.72C770.475 55.4667 770.391 55.1667 770.391 54.82C770.391 54.4333 770.495 54.0967 770.701 53.81C770.915 53.5233 771.211 53.3033 771.591 53.15C771.971 52.9967 772.411 52.92 772.911 52.92C773.418 52.92 773.861 52.9967 774.241 53.15C774.628 53.3033 774.925 53.5233 775.131 53.81C775.345 54.0967 775.451 54.4333 775.451 54.82C775.451 55.16 775.365 55.46 775.191 55.72C775.025 55.9733 774.781 56.1767 774.461 56.33ZM772.911 53.73C772.438 53.73 772.065 53.8333 771.791 54.04C771.518 54.24 771.381 54.5133 771.381 54.86C771.381 55.2067 771.515 55.48 771.781 55.68C772.055 55.88 772.431 55.98 772.911 55.98C773.398 55.98 773.778 55.88 774.051 55.68C774.331 55.48 774.471 55.2067 774.471 54.86C774.471 54.5133 774.328 54.24 774.041 54.04C773.761 53.8333 773.385 53.73 772.911 53.73ZM772.911 59.27C773.465 59.27 773.901 59.1567 774.221 58.93C774.541 58.6967 774.701 58.3833 774.701 57.99C774.701 57.6033 774.541 57.3 774.221 57.08C773.901 56.8533 773.465 56.74 772.911 56.74C772.358 56.74 771.925 56.8533 771.611 57.08C771.298 57.3 771.141 57.6033 771.141 57.99C771.141 58.3833 771.298 58.6967 771.611 58.93C771.925 59.1567 772.358 59.27 772.911 59.27Z" fill="#7B7B7B"/>
<path d="M810.65 53V60H809.66V53.87H808.08V53H810.65ZM814.451 52.92C815.391 52.92 816.115 53.2233 816.621 53.83C817.135 54.4367 817.391 55.2967 817.391 56.41C817.391 57.19 817.251 57.8567 816.971 58.41C816.698 58.9567 816.311 59.3733 815.811 59.66C815.318 59.94 814.741 60.08 814.081 60.08C813.741 60.08 813.421 60.0467 813.121 59.98C812.821 59.9067 812.561 59.8033 812.341 59.67L812.721 58.89C813.061 59.11 813.511 59.22 814.071 59.22C814.798 59.22 815.365 58.9967 815.771 58.55C816.185 58.0967 816.391 57.44 816.391 56.58V56.33C816.191 56.63 815.915 56.86 815.561 57.02C815.208 57.1733 814.811 57.25 814.371 57.25C813.911 57.25 813.498 57.1633 813.131 56.99C812.771 56.8167 812.488 56.57 812.281 56.25C812.081 55.9233 811.981 55.55 811.981 55.13C811.981 54.69 812.088 54.3033 812.301 53.97C812.521 53.6367 812.818 53.38 813.191 53.2C813.565 53.0133 813.985 52.92 814.451 52.92ZM814.541 56.44C814.855 56.44 815.135 56.38 815.381 56.26C815.628 56.14 815.818 55.9767 815.951 55.77C816.091 55.5633 816.161 55.3333 816.161 55.08C816.161 54.8333 816.095 54.61 815.961 54.41C815.835 54.2033 815.645 54.04 815.391 53.92C815.145 53.7933 814.845 53.73 814.491 53.73C814.031 53.73 813.658 53.8533 813.371 54.1C813.091 54.3467 812.951 54.6767 812.951 55.09C812.951 55.5033 813.095 55.8333 813.381 56.08C813.668 56.32 814.055 56.44 814.541 56.44Z" fill="#7B7B7B"/>
<path d="M855.4 59.13V60H850.37V59.32L853.22 56.57C853.567 56.2367 853.8 55.95 853.92 55.71C854.04 55.4633 854.1 55.2167 854.1 54.97C854.1 54.6033 853.97 54.32 853.71 54.12C853.457 53.9133 853.09 53.81 852.61 53.81C851.837 53.81 851.24 54.0633 850.82 54.57L850.14 53.98C850.413 53.6467 850.77 53.3867 851.21 53.2C851.657 53.0133 852.153 52.92 852.7 52.92C853.433 52.92 854.017 53.0967 854.45 53.45C854.883 53.7967 855.1 54.27 855.1 54.87C855.1 55.2433 855.02 55.5967 854.86 55.93C854.7 56.2633 854.397 56.6433 853.95 57.07L851.81 59.13H855.4ZM859.053 60.08C858.5 60.08 858.006 59.94 857.573 59.66C857.146 59.3733 856.81 58.96 856.563 58.42C856.316 57.88 856.193 57.24 856.193 56.5C856.193 55.76 856.316 55.12 856.563 54.58C856.81 54.04 857.146 53.63 857.573 53.35C858.006 53.0633 858.5 52.92 859.053 52.92C859.6 52.92 860.086 53.0633 860.513 53.35C860.946 53.63 861.286 54.04 861.533 54.58C861.78 55.12 861.903 55.76 861.903 56.5C861.903 57.24 861.78 57.88 861.533 58.42C861.286 58.96 860.946 59.3733 860.513 59.66C860.086 59.94 859.6 60.08 859.053 60.08ZM859.053 59.19C859.613 59.19 860.06 58.96 860.393 58.5C860.733 58.04 860.903 57.3733 860.903 56.5C860.903 55.6267 860.733 54.96 860.393 54.5C860.06 54.04 859.613 53.81 859.053 53.81C858.486 53.81 858.033 54.04 857.693 54.5C857.36 54.96 857.193 55.6267 857.193 56.5C857.193 57.3733 857.36 58.04 857.693 58.5C858.033 58.96 858.486 59.19 859.053 59.19Z" fill="#7B7B7B"/>
<path d="M899.4 59.13V60H894.37V59.32L897.22 56.57C897.567 56.2367 897.8 55.95 897.92 55.71C898.04 55.4633 898.1 55.2167 898.1 54.97C898.1 54.6033 897.97 54.32 897.71 54.12C897.457 53.9133 897.09 53.81 896.61 53.81C895.837 53.81 895.24 54.0633 894.82 54.57L894.14 53.98C894.413 53.6467 894.77 53.3867 895.21 53.2C895.657 53.0133 896.153 52.92 896.7 52.92C897.433 52.92 898.017 53.0967 898.45 53.45C898.883 53.7967 899.1 54.27 899.1 54.87C899.1 55.2433 899.02 55.5967 898.86 55.93C898.7 56.2633 898.397 56.6433 897.95 57.07L895.81 59.13H899.4ZM902.392 53V60H901.402V53.87H899.822V53H902.392Z" fill="#7B7B7B"/>
<path d="M940.4 59.13V60H935.37V59.32L938.22 56.57C938.567 56.2367 938.8 55.95 938.92 55.71C939.04 55.4633 939.1 55.2167 939.1 54.97C939.1 54.6033 938.97 54.32 938.71 54.12C938.457 53.9133 938.09 53.81 937.61 53.81C936.837 53.81 936.24 54.0633 935.82 54.57L935.14 53.98C935.413 53.6467 935.77 53.3867 936.21 53.2C936.657 53.0133 937.153 52.92 937.7 52.92C938.433 52.92 939.017 53.0967 939.45 53.45C939.883 53.7967 940.1 54.27 940.1 54.87C940.1 55.2433 940.02 55.5967 939.86 55.93C939.7 56.2633 939.397 56.6433 938.95 57.07L936.81 59.13H940.4ZM946.142 59.13V60H941.112V59.32L943.962 56.57C944.309 56.2367 944.542 55.95 944.662 55.71C944.782 55.4633 944.842 55.2167 944.842 54.97C944.842 54.6033 944.712 54.32 944.452 54.12C944.199 53.9133 943.832 53.81 943.352 53.81C942.579 53.81 941.982 54.0633 941.562 54.57L940.882 53.98C941.156 53.6467 941.512 53.3867 941.952 53.2C942.399 53.0133 942.896 52.92 943.442 52.92C944.176 52.92 944.759 53.0967 945.192 53.45C945.626 53.7967 945.842 54.27 945.842 54.87C945.842 55.2433 945.762 55.5967 945.602 55.93C945.442 56.2633 945.139 56.6433 944.692 57.07L942.552 59.13H946.142Z" fill="#7B7B7B"/>
<path d="M983.4 59.13V60H978.37V59.32L981.22 56.57C981.567 56.2367 981.8 55.95 981.92 55.71C982.04 55.4633 982.1 55.2167 982.1 54.97C982.1 54.6033 981.97 54.32 981.71 54.12C981.457 53.9133 981.09 53.81 980.61 53.81C979.837 53.81 979.24 54.0633 978.82 54.57L978.14 53.98C978.413 53.6467 978.77 53.3867 979.21 53.2C979.657 53.0133 980.153 52.92 980.7 52.92C981.433 52.92 982.017 53.0967 982.45 53.45C982.883 53.7967 983.1 54.27 983.1 54.87C983.1 55.2433 983.02 55.5967 982.86 55.93C982.7 56.2633 982.397 56.6433 981.95 57.07L979.81 59.13H983.4ZM986.902 55.94C987.589 56.0067 988.112 56.22 988.472 56.58C988.832 56.9333 989.012 57.3867 989.012 57.94C989.012 58.34 988.912 58.7033 988.712 59.03C988.512 59.35 988.212 59.6067 987.812 59.8C987.419 59.9867 986.936 60.08 986.362 60.08C985.862 60.08 985.382 60.0067 984.922 59.86C984.462 59.7067 984.086 59.4967 983.792 59.23L984.252 58.44C984.492 58.6667 984.799 58.85 985.172 58.99C985.546 59.1233 985.942 59.19 986.362 59.19C986.882 59.19 987.286 59.08 987.572 58.86C987.866 58.64 988.012 58.3367 988.012 57.95C988.012 57.5633 987.869 57.2633 987.582 57.05C987.296 56.8367 986.862 56.73 986.282 56.73H985.722V56.03L987.482 53.87H984.112V53H988.732V53.68L986.902 55.94Z" fill="#7B7B7B"/>
<path d="M1025.4 59.13V60H1020.37V59.32L1023.22 56.57C1023.57 56.2367 1023.8 55.95 1023.92 55.71C1024.04 55.4633 1024.1 55.2167 1024.1 54.97C1024.1 54.6033 1023.97 54.32 1023.71 54.12C1023.46 53.9133 1023.09 53.81 1022.61 53.81C1021.84 53.81 1021.24 54.0633 1020.82 54.57L1020.14 53.98C1020.41 53.6467 1020.77 53.3867 1021.21 53.2C1021.66 53.0133 1022.15 52.92 1022.7 52.92C1023.43 52.92 1024.02 53.0967 1024.45 53.45C1024.88 53.7967 1025.1 54.27 1025.1 54.87C1025.1 55.2433 1025.02 55.5967 1024.86 55.93C1024.7 56.2633 1024.4 56.6433 1023.95 57.07L1021.81 59.13H1025.4ZM1032.13 58.28H1030.8V60H1029.83V58.28H1025.94V57.58L1029.52 53H1030.6L1027.17 57.42H1029.86V55.9H1030.8V57.42H1032.13V58.28Z" fill="#7B7B7B"/>
<line x1="67.5" y1="48.5" x2="67.5" y2="287.5" stroke="#7B7B7B" stroke-opacity="0.32" stroke-linecap="round" stroke-dasharray="2 4"/>
<line x1="109.5" y1="48.5" x2="109.5" y2="287.5" stroke="#7B7B7B" stroke-opacity="0.32" stroke-linecap="round" stroke-dasharray="2 4"/>
<line x1="152.5" y1="48.5" x2="152.5" y2="287.5" stroke="#7B7B7B" stroke-opacity="0.32" stroke-linecap="round" stroke-dasharray="2 4"/>
<line x1="195.5" y1="48.5" x2="195.5" y2="287.5" stroke="#7B7B7B" stroke-opacity="0.32" stroke-linecap="round" stroke-dasharray="2 4"/>
<line x1="237.5" y1="48.5" x2="237.5" y2="287.5" stroke="#7B7B7B" stroke-opacity="0.32" stroke-linecap="round" stroke-dasharray="2 4"/>
<line x1="280.5" y1="48.5" x2="280.5" y2="287.5" stroke="#7B7B7B" stroke-opacity="0.32" stroke-linecap="round" stroke-dasharray="2 4"/>
<line x1="323.5" y1="48.5" x2="323.5" y2="287.5" stroke="#7B7B7B" stroke-opacity="0.32" stroke-linecap="round" stroke-dasharray="2 4"/>
<line x1="365.5" y1="48.5" x2="365.5" y2="287.5" stroke="#7B7B7B" stroke-opacity="0.32" stroke-linecap="round" stroke-dasharray="2 4"/>
<line x1="408.5" y1="48.5" x2="408.5" y2="287.5" stroke="#7B7B7B" stroke-opacity="0.32" stroke-linecap="round" stroke-dasharray="2 4"/>
<line x1="451.5" y1="48.5" x2="451.5" y2="287.5" stroke="#7B7B7B" stroke-opacity="0.32" stroke-linecap="round" stroke-dasharray="2 4"/>
<line x1="493.5" y1="48.5" x2="493.5" y2="287.5" stroke="#7B7B7B" stroke-opacity="0.32" stroke-linecap="round" stroke-dasharray="2 4"/>
<line x1="536.5" y1="48.5" x2="536.5" y2="287.5" stroke="#7B7B7B" stroke-opacity="0.32" stroke-linecap="round" stroke-dasharray="2 4"/>
<line x1="579.5" y1="48.5" x2="579.5" y2="287.5" stroke="#7B7B7B" stroke-opacity="0.32" stroke-linecap="round" stroke-dasharray="2 4"/>
<line x1="621.5" y1="48.5" x2="621.5" y2="287.5" stroke="#7B7B7B" stroke-opacity="0.32" stroke-linecap="round" stroke-dasharray="2 4"/>
<line x1="664.5" y1="48.5" x2="664.5" y2="287.5" stroke="#7B7B7B" stroke-opacity="0.32" stroke-linecap="round" stroke-dasharray="2 4"/>
<line x1="707.5" y1="48.5" x2="707.5" y2="287.5" stroke="#7B7B7B" stroke-opacity="0.32" stroke-linecap="round" stroke-dasharray="2 4"/>
<line x1="749.5" y1="48.5" x2="749.5" y2="287.5" stroke="#7B7B7B" stroke-opacity="0.32" stroke-linecap="round" stroke-dasharray="2 4"/>
<line x1="792.5" y1="48.5" x2="792.5" y2="287.5" stroke="#7B7B7B" stroke-opacity="0.32" stroke-linecap="round" stroke-dasharray="2 4"/>
<line x1="835.5" y1="48.5" x2="835.5" y2="287.5" stroke="#7B7B7B" stroke-opacity="0.32" stroke-linecap="round" stroke-dasharray="2 4"/>
<line x1="877.5" y1="48.5" x2="877.5" y2="287.5" stroke="#7B7B7B" stroke-opacity="0.32" stroke-linecap="round" stroke-dasharray="2 4"/>
<line x1="920.5" y1="48.5" x2="920.5" y2="287.5" stroke="#7B7B7B" stroke-opacity="0.32" stroke-linecap="round" stroke-dasharray="2 4"/>
<line x1="963.5" y1="48.5" x2="963.5" y2="287.5" stroke="#7B7B7B" stroke-opacity="0.32" stroke-linecap="round" stroke-dasharray="2 4"/>
<line x1="1005.5" y1="48.5" x2="1005.5" y2="287.5" stroke="#7B7B7B" stroke-opacity="0.32" stroke-linecap="round" stroke-dasharray="2 4"/>
<path d="M27.708 36.096C27.076 36.096 26.464 36 25.872 35.808C25.288 35.608 24.828 35.352 24.492 35.04L24.936 34.104C25.256 34.392 25.664 34.628 26.16 34.812C26.664 34.988 27.18 35.076 27.708 35.076C28.404 35.076 28.924 34.96 29.268 34.728C29.612 34.488 29.784 34.172 29.784 33.78C29.784 33.492 29.688 33.26 29.496 33.084C29.312 32.9 29.08 32.76 28.8 32.664C28.528 32.568 28.14 32.46 27.636 32.34C27.004 32.188 26.492 32.036 26.1 31.884C25.716 31.732 25.384 31.5 25.104 31.188C24.832 30.868 24.696 30.44 24.696 29.904C24.696 29.456 24.812 29.052 25.044 28.692C25.284 28.332 25.644 28.044 26.124 27.828C26.604 27.612 27.2 27.504 27.912 27.504C28.408 27.504 28.896 27.568 29.376 27.696C29.856 27.824 30.268 28.008 30.612 28.248L30.216 29.208C29.864 28.984 29.488 28.816 29.088 28.704C28.688 28.584 28.296 28.524 27.912 28.524C27.232 28.524 26.72 28.648 26.376 28.896C26.04 29.144 25.872 29.464 25.872 29.856C25.872 30.144 25.968 30.38 26.16 30.564C26.352 30.74 26.588 30.88 26.868 30.984C27.156 31.08 27.544 31.184 28.032 31.296C28.664 31.448 29.172 31.6 29.556 31.752C29.94 31.904 30.268 32.136 30.54 32.448C30.82 32.76 30.96 33.18 30.96 33.708C30.96 34.148 30.84 34.552 30.6 34.92C30.36 35.28 29.996 35.568 29.508 35.784C29.02 35.992 28.42 36.096 27.708 36.096ZM35.4131 35.064C36.1731 35.064 36.7851 34.808 37.2491 34.296L37.8731 35.04C37.5931 35.376 37.2371 35.632 36.8051 35.808C36.3811 35.984 35.9051 36.072 35.3771 36.072C34.7051 36.072 34.1091 35.936 33.5891 35.664C33.0691 35.384 32.6651 34.996 32.3771 34.5C32.0971 34.004 31.9571 33.444 31.9571 32.82C31.9571 32.204 32.0931 31.648 32.3651 31.152C32.6451 30.656 33.0251 30.272 33.5051 30C33.9931 29.72 34.5411 29.58 35.1491 29.58C35.7251 29.58 36.2491 29.712 36.7211 29.976C37.1931 30.232 37.5691 30.596 37.8491 31.068C38.1291 31.54 38.2731 32.084 38.2811 32.7L33.2291 33.684C33.3891 34.124 33.6571 34.464 34.0331 34.704C34.4171 34.944 34.8771 35.064 35.4131 35.064ZM35.1491 30.552C34.7491 30.552 34.3891 30.644 34.0691 30.828C33.7571 31.012 33.5131 31.272 33.3371 31.608C33.1611 31.936 33.0731 32.32 33.0731 32.76V32.88L37.1411 32.112C37.0371 31.648 36.8051 31.272 36.4451 30.984C36.0851 30.696 35.6531 30.552 35.1491 30.552ZM47.8488 29.58C48.6488 29.58 49.2808 29.812 49.7448 30.276C50.2168 30.74 50.4528 31.428 50.4528 32.34V36H49.3008V32.472C49.3008 31.856 49.1568 31.392 48.8688 31.08C48.5888 30.768 48.1848 30.612 47.6568 30.612C47.0728 30.612 46.6088 30.796 46.2648 31.164C45.9208 31.524 45.7488 32.044 45.7488 32.724V36H44.5968V32.472C44.5968 31.856 44.4528 31.392 44.1648 31.08C43.8848 30.768 43.4808 30.612 42.9528 30.612C42.3688 30.612 41.9048 30.796 41.5608 31.164C41.2168 31.524 41.0448 32.044 41.0448 32.724V36H39.8928V29.64H40.9968V30.588C41.2288 30.26 41.5328 30.012 41.9088 29.844C42.2848 29.668 42.7128 29.58 43.1928 29.58C43.6888 29.58 44.1288 29.68 44.5128 29.88C44.8968 30.08 45.1928 30.372 45.4008 30.756C45.6408 30.388 45.9728 30.1 46.3968 29.892C46.8288 29.684 47.3128 29.58 47.8488 29.58ZM58.6076 29.64V36H57.5036V34.992C57.2476 35.344 56.9236 35.612 56.5316 35.796C56.1396 35.98 55.7076 36.072 55.2356 36.072C54.6196 36.072 54.0676 35.936 53.5796 35.664C53.0916 35.392 52.7076 35.012 52.4276 34.524C52.1556 34.028 52.0196 33.46 52.0196 32.82C52.0196 32.18 52.1556 31.616 52.4276 31.128C52.7076 30.64 53.0916 30.26 53.5796 29.988C54.0676 29.716 54.6196 29.58 55.2356 29.58C55.6916 29.58 56.1116 29.668 56.4956 29.844C56.8796 30.012 57.1996 30.264 57.4556 30.6V29.64H58.6076ZM55.3316 35.064C55.7316 35.064 56.0956 34.972 56.4236 34.788C56.7516 34.596 57.0076 34.332 57.1916 33.996C57.3756 33.652 57.4676 33.26 57.4676 32.82C57.4676 32.38 57.3756 31.992 57.1916 31.656C57.0076 31.312 56.7516 31.048 56.4236 30.864C56.0956 30.68 55.7316 30.588 55.3316 30.588C54.9236 30.588 54.5556 30.68 54.2276 30.864C53.9076 31.048 53.6516 31.312 53.4596 31.656C53.2756 31.992 53.1836 32.38 53.1836 32.82C53.1836 33.26 53.2756 33.652 53.4596 33.996C53.6516 34.332 53.9076 34.596 54.2276 34.788C54.5556 34.972 54.9236 35.064 55.3316 35.064ZM64.1833 29.58C64.9913 29.58 65.6313 29.816 66.1033 30.288C66.5833 30.752 66.8233 31.436 66.8233 32.34V36H65.6713V32.472C65.6713 31.856 65.5233 31.392 65.2273 31.08C64.9313 30.768 64.5073 30.612 63.9553 30.612C63.3313 30.612 62.8393 30.796 62.4793 31.164C62.1193 31.524 61.9393 32.044 61.9393 32.724V36H60.7873V29.64H61.8913V30.6C62.1233 30.272 62.4353 30.02 62.8273 29.844C63.2273 29.668 63.6793 29.58 64.1833 29.58ZM74.9904 29.64V36H73.8864V34.992C73.6304 35.344 73.3064 35.612 72.9144 35.796C72.5224 35.98 72.0904 36.072 71.6184 36.072C71.0024 36.072 70.4504 35.936 69.9624 35.664C69.4744 35.392 69.0904 35.012 68.8104 34.524C68.5384 34.028 68.4024 33.46 68.4024 32.82C68.4024 32.18 68.5384 31.616 68.8104 31.128C69.0904 30.64 69.4744 30.26 69.9624 29.988C70.4504 29.716 71.0024 29.58 71.6184 29.58C72.0744 29.58 72.4944 29.668 72.8784 29.844C73.2624 30.012 73.5824 30.264 73.8384 30.6V29.64H74.9904ZM71.7144 35.064C72.1144 35.064 72.4784 34.972 72.8064 34.788C73.1344 34.596 73.3904 34.332 73.5744 33.996C73.7584 33.652 73.8504 33.26 73.8504 32.82C73.8504 32.38 73.7584 31.992 73.5744 31.656C73.3904 31.312 73.1344 31.048 72.8064 30.864C72.4784 30.68 72.1144 30.588 71.7144 30.588C71.3064 30.588 70.9384 30.68 70.6104 30.864C70.2904 31.048 70.0344 31.312 69.8424 31.656C69.6584 31.992 69.5664 32.38 69.5664 32.82C69.5664 33.26 69.6584 33.652 69.8424 33.996C70.0344 34.332 70.2904 34.596 70.6104 34.788C70.9384 34.972 71.3064 35.064 71.7144 35.064ZM78.9941 36.072C78.4741 36.072 77.9741 36.004 77.4941 35.868C77.0141 35.724 76.6381 35.544 76.3661 35.328L76.8461 34.416C77.1261 34.616 77.4661 34.776 77.8661 34.896C78.2661 35.016 78.6701 35.076 79.0781 35.076C80.0861 35.076 80.5901 34.788 80.5901 34.212C80.5901 34.02 80.5221 33.868 80.3861 33.756C80.2501 33.644 80.0781 33.564 79.8701 33.516C79.6701 33.46 79.3821 33.4 79.0061 33.336C78.4941 33.256 78.0741 33.164 77.7461 33.06C77.4261 32.956 77.1501 32.78 76.9181 32.532C76.6861 32.284 76.5701 31.936 76.5701 31.488C76.5701 30.912 76.8101 30.452 77.2901 30.108C77.7701 29.756 78.4141 29.58 79.2221 29.58C79.6461 29.58 80.0701 29.632 80.4941 29.736C80.9181 29.84 81.2661 29.98 81.5381 30.156L81.0461 31.068C80.5261 30.732 79.9141 30.564 79.2101 30.564C78.7221 30.564 78.3501 30.644 78.0941 30.804C77.8381 30.964 77.7101 31.176 77.7101 31.44C77.7101 31.648 77.7821 31.812 77.9261 31.932C78.0701 32.052 78.2461 32.14 78.4541 32.196C78.6701 32.252 78.9701 32.316 79.3541 32.388C79.8661 32.476 80.2781 32.572 80.5901 32.676C80.9101 32.772 81.1821 32.94 81.4061 33.18C81.6301 33.42 81.7421 33.756 81.7421 34.188C81.7421 34.764 81.4941 35.224 80.9981 35.568C80.5101 35.904 79.8421 36.072 78.9941 36.072Z" fill="#7B7B7B"/>
<rect x="576" y="184" width="344" height="32" rx="8" fill="#0095EB"/>
<path d="M588.536 195.6C589.624 195.6 590.48 195.86 591.104 196.38C591.728 196.9 592.04 197.616 592.04 198.528C592.04 199.44 591.728 200.156 591.104 200.676C590.48 201.196 589.624 201.456 588.536 201.456H586.46V204H585.26V195.6H588.536ZM588.5 200.412C589.26 200.412 589.84 200.252 590.24 199.932C590.64 199.604 590.84 199.136 590.84 198.528C590.84 197.92 590.64 197.456 590.24 197.136C589.84 196.808 589.26 196.644 588.5 196.644H586.46V200.412H588.5ZM594.634 198.708C594.834 198.34 595.13 198.06 595.521 197.868C595.914 197.676 596.39 197.58 596.95 197.58V198.696C596.886 198.688 596.798 198.684 596.686 198.684C596.062 198.684 595.57 198.872 595.21 199.248C594.858 199.616 594.682 200.144 594.682 200.832V204H593.53V197.64H594.634V198.708ZM601.035 204.072C600.403 204.072 599.835 203.932 599.331 203.652C598.827 203.372 598.431 202.988 598.143 202.5C597.863 202.004 597.723 201.444 597.723 200.82C597.723 200.196 597.863 199.64 598.143 199.152C598.431 198.656 598.827 198.272 599.331 198C599.835 197.72 600.403 197.58 601.035 197.58C601.667 197.58 602.231 197.72 602.727 198C603.231 198.272 603.623 198.656 603.903 199.152C604.191 199.64 604.335 200.196 604.335 200.82C604.335 201.444 604.191 202.004 603.903 202.5C603.623 202.988 603.231 203.372 602.727 203.652C602.231 203.932 601.667 204.072 601.035 204.072ZM601.035 203.064C601.443 203.064 601.807 202.972 602.127 202.788C602.455 202.596 602.711 202.332 602.895 201.996C603.079 201.652 603.171 201.26 603.171 200.82C603.171 200.38 603.079 199.992 602.895 199.656C602.711 199.312 602.455 199.048 602.127 198.864C601.807 198.68 601.443 198.588 601.035 198.588C600.627 198.588 600.259 198.68 599.931 198.864C599.611 199.048 599.355 199.312 599.163 199.656C598.979 199.992 598.887 200.38 598.887 200.82C598.887 201.26 598.979 201.652 599.163 201.996C599.355 202.332 599.611 202.596 599.931 202.788C600.259 202.972 600.627 203.064 601.035 203.064ZM609.276 203.628C609.108 203.772 608.9 203.884 608.652 203.964C608.404 204.036 608.148 204.072 607.884 204.072C607.244 204.072 606.748 203.9 606.396 203.556C606.044 203.212 605.868 202.72 605.868 202.08V196.248H607.02V197.64H608.844V198.588H607.02V202.032C607.02 202.376 607.104 202.64 607.272 202.824C607.448 203.008 607.696 203.1 608.016 203.1C608.368 203.1 608.668 203 608.916 202.8L609.276 203.628ZM613.175 204.072C612.543 204.072 611.975 203.932 611.471 203.652C610.967 203.372 610.571 202.988 610.283 202.5C610.003 202.004 609.863 201.444 609.863 200.82C609.863 200.196 610.003 199.64 610.283 199.152C610.571 198.656 610.967 198.272 611.471 198C611.975 197.72 612.543 197.58 613.175 197.58C613.807 197.58 614.371 197.72 614.867 198C615.371 198.272 615.763 198.656 616.043 199.152C616.331 199.64 616.475 200.196 616.475 200.82C616.475 201.444 616.331 202.004 616.043 202.5C615.763 202.988 615.371 203.372 614.867 203.652C614.371 203.932 613.807 204.072 613.175 204.072ZM613.175 203.064C613.583 203.064 613.947 202.972 614.267 202.788C614.595 202.596 614.851 202.332 615.035 201.996C615.219 201.652 615.311 201.26 615.311 200.82C615.311 200.38 615.219 199.992 615.035 199.656C614.851 199.312 614.595 199.048 614.267 198.864C613.947 198.68 613.583 198.588 613.175 198.588C612.767 198.588 612.399 198.68 612.071 198.864C611.751 199.048 611.495 199.312 611.303 199.656C611.119 199.992 611.027 200.38 611.027 200.82C611.027 201.26 611.119 201.652 611.303 201.996C611.495 202.332 611.751 202.596 612.071 202.788C612.399 202.972 612.767 203.064 613.175 203.064ZM621.417 203.628C621.249 203.772 621.041 203.884 620.793 203.964C620.545 204.036 620.289 204.072 620.025 204.072C619.385 204.072 618.889 203.9 618.537 203.556C618.185 203.212 618.009 202.72 618.009 202.08V196.248H619.161V197.64H620.985V198.588H619.161V202.032C619.161 202.376 619.245 202.64 619.413 202.824C619.589 203.008 619.837 203.1 620.157 203.1C620.509 203.1 620.809 203 621.057 202.8L621.417 203.628ZM622.803 197.64H623.955V204H622.803V197.64ZM623.379 196.416C623.155 196.416 622.967 196.344 622.815 196.2C622.671 196.056 622.599 195.88 622.599 195.672C622.599 195.464 622.671 195.288 622.815 195.144C622.967 194.992 623.155 194.916 623.379 194.916C623.603 194.916 623.787 194.988 623.931 195.132C624.083 195.268 624.159 195.44 624.159 195.648C624.159 195.864 624.083 196.048 623.931 196.2C623.787 196.344 623.603 196.416 623.379 196.416ZM629.527 197.58C630.143 197.58 630.695 197.716 631.183 197.988C631.671 198.26 632.051 198.64 632.323 199.128C632.603 199.616 632.743 200.18 632.743 200.82C632.743 201.46 632.603 202.028 632.323 202.524C632.051 203.012 631.671 203.392 631.183 203.664C630.695 203.936 630.143 204.072 629.527 204.072C629.071 204.072 628.651 203.984 628.267 203.808C627.891 203.632 627.571 203.376 627.307 203.04V206.328H626.155V197.64H627.259V198.648C627.515 198.296 627.839 198.032 628.23 197.856C628.623 197.672 629.055 197.58 629.527 197.58ZM629.431 203.064C629.839 203.064 630.203 202.972 630.523 202.788C630.851 202.596 631.107 202.332 631.291 201.996C631.483 201.652 631.579 201.26 631.579 200.82C631.579 200.38 631.483 199.992 631.291 199.656C631.107 199.312 630.851 199.048 630.523 198.864C630.203 198.68 629.839 198.588 629.431 198.588C629.031 198.588 628.667 198.684 628.339 198.876C628.019 199.06 627.763 199.32 627.571 199.656C627.387 199.992 627.295 200.38 627.295 200.82C627.295 201.26 627.387 201.652 627.571 201.996C627.755 202.332 628.011 202.596 628.339 202.788C628.667 202.972 629.031 203.064 629.431 203.064ZM640.334 197.64V204H639.23V202.992C638.974 203.344 638.65 203.612 638.258 203.796C637.866 203.98 637.434 204.072 636.962 204.072C636.346 204.072 635.794 203.936 635.306 203.664C634.818 203.392 634.434 203.012 634.154 202.524C633.882 202.028 633.746 201.46 633.746 200.82C633.746 200.18 633.882 199.616 634.154 199.128C634.434 198.64 634.818 198.26 635.306 197.988C635.794 197.716 636.346 197.58 636.962 197.58C637.418 197.58 637.838 197.668 638.222 197.844C638.606 198.012 638.926 198.264 639.182 198.6V197.64H640.334ZM637.058 203.064C637.458 203.064 637.822 202.972 638.15 202.788C638.478 202.596 638.734 202.332 638.918 201.996C639.102 201.652 639.194 201.26 639.194 200.82C639.194 200.38 639.102 199.992 638.918 199.656C638.734 199.312 638.478 199.048 638.15 198.864C637.822 198.68 637.458 198.588 637.058 198.588C636.65 198.588 636.282 198.68 635.954 198.864C635.634 199.048 635.378 199.312 635.186 199.656C635.002 199.992 634.91 200.38 634.91 200.82C634.91 201.26 635.002 201.652 635.186 201.996C635.378 202.332 635.634 202.596 635.954 202.788C636.282 202.972 636.65 203.064 637.058 203.064ZM645.286 204.072C644.638 204.072 644.058 203.932 643.546 203.652C643.042 203.372 642.646 202.988 642.358 202.5C642.07 202.004 641.926 201.444 641.926 200.82C641.926 200.196 642.07 199.64 642.358 199.152C642.646 198.656 643.042 198.272 643.546 198C644.058 197.72 644.638 197.58 645.286 197.58C645.862 197.58 646.374 197.696 646.822 197.928C647.278 198.16 647.63 198.496 647.878 198.936L647.002 199.5C646.802 199.196 646.554 198.968 646.258 198.816C645.962 198.664 645.634 198.588 645.274 198.588C644.858 198.588 644.482 198.68 644.146 198.864C643.818 199.048 643.558 199.312 643.366 199.656C643.182 199.992 643.09 200.38 643.09 200.82C643.09 201.268 643.182 201.664 643.366 202.008C643.558 202.344 643.818 202.604 644.146 202.788C644.482 202.972 644.858 203.064 645.274 203.064C645.634 203.064 645.962 202.988 646.258 202.836C646.554 202.684 646.802 202.456 647.002 202.152L647.878 202.704C647.63 203.144 647.278 203.484 646.822 203.724C646.374 203.956 645.862 204.072 645.286 204.072ZM644.722 206.688C644.306 206.688 643.95 206.6 643.654 206.424L643.906 205.836C644.146 205.972 644.418 206.04 644.722 206.04C645.17 206.04 645.394 205.88 645.394 205.56C645.394 205.416 645.338 205.3 645.226 205.212C645.114 205.132 644.942 205.092 644.71 205.092H644.386L644.686 203.916H645.346L645.166 204.6C645.502 204.632 645.758 204.736 645.934 204.912C646.118 205.096 646.21 205.324 646.21 205.596C646.21 205.932 646.074 206.196 645.802 206.388C645.53 206.588 645.17 206.688 644.722 206.688ZM655.276 197.64V204H654.172V202.992C653.916 203.344 653.592 203.612 653.2 203.796C652.808 203.98 652.376 204.072 651.904 204.072C651.288 204.072 650.736 203.936 650.248 203.664C649.76 203.392 649.376 203.012 649.096 202.524C648.824 202.028 648.688 201.46 648.688 200.82C648.688 200.18 648.824 199.616 649.096 199.128C649.376 198.64 649.76 198.26 650.248 197.988C650.736 197.716 651.288 197.58 651.904 197.58C652.36 197.58 652.78 197.668 653.164 197.844C653.548 198.012 653.868 198.264 654.124 198.6V197.64H655.276ZM652 203.064C652.4 203.064 652.764 202.972 653.092 202.788C653.42 202.596 653.676 202.332 653.86 201.996C654.044 201.652 654.136 201.26 654.136 200.82C654.136 200.38 654.044 199.992 653.86 199.656C653.676 199.312 653.42 199.048 653.092 198.864C652.764 198.68 652.4 198.588 652 198.588C651.592 198.588 651.224 198.68 650.896 198.864C650.576 199.048 650.32 199.312 650.128 199.656C649.944 199.992 649.852 200.38 649.852 200.82C649.852 201.26 649.944 201.652 650.128 201.996C650.32 202.332 650.576 202.596 650.896 202.788C651.224 202.972 651.592 203.064 652 203.064ZM653.044 196.68C652.852 196.68 652.684 196.64 652.54 196.56C652.404 196.48 652.232 196.36 652.024 196.2C651.904 196.088 651.8 196.008 651.712 195.96C651.624 195.904 651.536 195.876 651.448 195.876C651.272 195.876 651.128 195.944 651.016 196.08C650.904 196.208 650.844 196.388 650.836 196.62H650.188C650.204 196.172 650.316 195.816 650.524 195.552C650.74 195.288 651.02 195.156 651.364 195.156C651.556 195.156 651.724 195.2 651.868 195.288C652.02 195.368 652.192 195.488 652.384 195.648C652.52 195.76 652.628 195.844 652.708 195.9C652.788 195.948 652.872 195.972 652.96 195.972C653.136 195.972 653.28 195.908 653.392 195.78C653.504 195.652 653.564 195.476 653.572 195.252H654.22C654.204 195.684 654.088 196.032 653.872 196.296C653.664 196.552 653.388 196.68 653.044 196.68ZM660.179 204.072C659.547 204.072 658.979 203.932 658.475 203.652C657.971 203.372 657.575 202.988 657.287 202.5C657.007 202.004 656.867 201.444 656.867 200.82C656.867 200.196 657.007 199.64 657.287 199.152C657.575 198.656 657.971 198.272 658.475 198C658.979 197.72 659.547 197.58 660.179 197.58C660.811 197.58 661.375 197.72 661.871 198C662.375 198.272 662.767 198.656 663.047 199.152C663.335 199.64 663.479 200.196 663.479 200.82C663.479 201.444 663.335 202.004 663.047 202.5C662.767 202.988 662.375 203.372 661.871 203.652C661.375 203.932 660.811 204.072 660.179 204.072ZM660.179 203.064C660.587 203.064 660.951 202.972 661.271 202.788C661.599 202.596 661.855 202.332 662.039 201.996C662.223 201.652 662.315 201.26 662.315 200.82C662.315 200.38 662.223 199.992 662.039 199.656C661.855 199.312 661.599 199.048 661.271 198.864C660.951 198.68 660.587 198.588 660.179 198.588C659.771 198.588 659.403 198.68 659.075 198.864C658.755 199.048 658.499 199.312 658.307 199.656C658.123 199.992 658.031 200.38 658.031 200.82C658.031 201.26 658.123 201.652 658.307 201.996C658.499 202.332 658.755 202.596 659.075 202.788C659.403 202.972 659.771 203.064 660.179 203.064Z" fill="white"/>
<path d="M912 192L912 208" stroke="white" stroke-opacity="0.4" stroke-width="4" stroke-linecap="round"/>
<rect x="878" y="232" width="170" height="32" rx="8" fill="#FE5B5E"/>
<path d="M890.788 243.504C891.908 243.504 892.792 243.832 893.44 244.488C894.088 245.136 894.412 246.068 894.412 247.284V252H893.212V249.684H888.364V252H887.188V247.284C887.188 246.068 887.512 245.136 888.16 244.488C888.808 243.832 889.684 243.504 890.788 243.504ZM893.212 248.64V247.176C893.212 246.32 892.996 245.672 892.564 245.232C892.14 244.792 891.548 244.572 890.788 244.572C890.028 244.572 889.432 244.792 889 245.232C888.576 245.672 888.364 246.32 888.364 247.176V248.64H893.212ZM900.086 245.58C900.894 245.58 901.534 245.816 902.006 246.288C902.486 246.752 902.726 247.436 902.726 248.34V252H901.574V248.472C901.574 247.856 901.426 247.392 901.13 247.08C900.834 246.768 900.41 246.612 899.858 246.612C899.234 246.612 898.742 246.796 898.382 247.164C898.022 247.524 897.842 248.044 897.842 248.724V252H896.69V245.64H897.794V246.6C898.026 246.272 898.338 246.02 898.73 245.844C899.13 245.668 899.582 245.58 900.086 245.58ZM910.893 245.64V252H909.789V250.992C909.533 251.344 909.209 251.612 908.817 251.796C908.425 251.98 907.993 252.072 907.521 252.072C906.905 252.072 906.353 251.936 905.865 251.664C905.377 251.392 904.993 251.012 904.713 250.524C904.441 250.028 904.305 249.46 904.305 248.82C904.305 248.18 904.441 247.616 904.713 247.128C904.993 246.64 905.377 246.26 905.865 245.988C906.353 245.716 906.905 245.58 907.521 245.58C907.977 245.58 908.397 245.668 908.781 245.844C909.165 246.012 909.485 246.264 909.741 246.6V245.64H910.893ZM907.617 251.064C908.017 251.064 908.381 250.972 908.709 250.788C909.037 250.596 909.293 250.332 909.477 249.996C909.661 249.652 909.753 249.26 909.753 248.82C909.753 248.38 909.661 247.992 909.477 247.656C909.293 247.312 909.037 247.048 908.709 246.864C908.381 246.68 908.017 246.588 907.617 246.588C907.209 246.588 906.841 246.68 906.513 246.864C906.193 247.048 905.937 247.312 905.745 247.656C905.561 247.992 905.469 248.38 905.469 248.82C905.469 249.26 905.561 249.652 905.745 249.996C905.937 250.332 906.193 250.596 906.513 250.788C906.841 250.972 907.209 251.064 907.617 251.064ZM908.553 243.156H910.017L908.001 244.716H906.921L908.553 243.156ZM915.004 252.072C914.388 252.072 913.912 251.904 913.576 251.568C913.24 251.224 913.072 250.744 913.072 250.128V243.096H914.224V250.032C914.224 250.376 914.304 250.64 914.464 250.824C914.632 251.008 914.88 251.1 915.208 251.1C915.408 251.1 915.596 251.06 915.772 250.98L915.832 251.928C915.568 252.024 915.292 252.072 915.004 252.072ZM916.928 245.64H918.08V252H916.928V245.64ZM917.504 244.416C917.28 244.416 917.092 244.344 916.94 244.2C916.796 244.056 916.724 243.88 916.724 243.672C916.724 243.464 916.796 243.288 916.94 243.144C917.092 242.992 917.28 242.916 917.504 242.916C917.728 242.916 917.912 242.988 918.056 243.132C918.208 243.268 918.284 243.44 918.284 243.648C918.284 243.864 918.208 244.048 918.056 244.2C917.912 244.344 917.728 244.416 917.504 244.416ZM922.104 252.072C921.584 252.072 921.084 252.004 920.604 251.868C920.124 251.724 919.748 251.544 919.476 251.328L919.956 250.416C920.236 250.616 920.576 250.776 920.976 250.896C921.376 251.016 921.78 251.076 922.188 251.076C923.196 251.076 923.7 250.788 923.7 250.212C923.7 250.02 923.632 249.868 923.496 249.756C923.36 249.644 923.188 249.564 922.98 249.516C922.78 249.46 922.492 249.4 922.116 249.336C921.604 249.256 921.184 249.164 920.856 249.06C920.536 248.956 920.26 248.78 920.028 248.532C919.796 248.284 919.68 247.936 919.68 247.488C919.68 246.912 919.92 246.452 920.4 246.108C920.88 245.756 921.524 245.58 922.332 245.58C922.756 245.58 923.18 245.632 923.604 245.736C924.028 245.84 924.376 245.98 924.648 246.156L924.156 247.068C923.636 246.732 923.024 246.564 922.32 246.564C921.832 246.564 921.46 246.644 921.204 246.804C920.948 246.964 920.82 247.176 920.82 247.44C920.82 247.648 920.892 247.812 921.036 247.932C921.18 248.052 921.356 248.14 921.564 248.196C921.78 248.252 922.08 248.316 922.464 248.388C922.976 248.476 923.388 248.572 923.7 248.676C924.02 248.772 924.292 248.94 924.516 249.18C924.74 249.42 924.852 249.756 924.852 250.188C924.852 250.764 924.604 251.224 924.108 251.568C923.62 251.904 922.952 252.072 922.104 252.072ZM929.159 251.064C929.919 251.064 930.531 250.808 930.995 250.296L931.619 251.04C931.339 251.376 930.983 251.632 930.551 251.808C930.127 251.984 929.651 252.072 929.123 252.072C928.451 252.072 927.855 251.936 927.335 251.664C926.815 251.384 926.411 250.996 926.123 250.5C925.843 250.004 925.703 249.444 925.703 248.82C925.703 248.204 925.839 247.648 926.111 247.152C926.391 246.656 926.771 246.272 927.251 246C927.739 245.72 928.287 245.58 928.895 245.58C929.471 245.58 929.995 245.712 930.467 245.976C930.939 246.232 931.315 246.596 931.595 247.068C931.875 247.54 932.019 248.084 932.027 248.7L926.975 249.684C927.135 250.124 927.403 250.464 927.779 250.704C928.163 250.944 928.623 251.064 929.159 251.064ZM928.895 246.552C928.495 246.552 928.135 246.644 927.815 246.828C927.503 247.012 927.259 247.272 927.083 247.608C926.907 247.936 926.819 248.32 926.819 248.76V248.88L930.887 248.112C930.783 247.648 930.551 247.272 930.191 246.984C929.831 246.696 929.399 246.552 928.895 246.552Z" fill="white"/>
<path d="M1040 240L1040 256" stroke="white" stroke-opacity="0.4" stroke-width="4" stroke-linecap="round"/>
<rect x="24" y="88" width="384" height="32" rx="8" fill="#FEC92F"/>
<path d="M36.536 99.6C37.624 99.6 38.48 99.86 39.104 100.38C39.728 100.9 40.04 101.616 40.04 102.528C40.04 103.44 39.728 104.156 39.104 104.676C38.48 105.196 37.624 105.456 36.536 105.456H34.46V108H33.26V99.6H36.536ZM36.5 104.412C37.26 104.412 37.84 104.252 38.24 103.932C38.64 103.604 38.84 103.136 38.84 102.528C38.84 101.92 38.64 101.456 38.24 101.136C37.84 100.808 37.26 100.644 36.5 100.644H34.46V104.412H36.5ZM44.4795 107.064C45.2395 107.064 45.8515 106.808 46.3155 106.296L46.9395 107.04C46.6595 107.376 46.3035 107.632 45.8715 107.808C45.4475 107.984 44.9715 108.072 44.4435 108.072C43.7715 108.072 43.1755 107.936 42.6555 107.664C42.1355 107.384 41.7315 106.996 41.4435 106.5C41.1635 106.004 41.0235 105.444 41.0235 104.82C41.0235 104.204 41.1595 103.648 41.4315 103.152C41.7115 102.656 42.0915 102.272 42.5715 102C43.0595 101.72 43.6075 101.58 44.2155 101.58C44.7915 101.58 45.3155 101.712 45.7875 101.976C46.2595 102.232 46.6355 102.596 46.9155 103.068C47.1955 103.54 47.3395 104.084 47.3475 104.7L42.2955 105.684C42.4555 106.124 42.7235 106.464 43.0995 106.704C43.4835 106.944 43.9435 107.064 44.4795 107.064ZM44.2155 102.552C43.8155 102.552 43.4555 102.644 43.1355 102.828C42.8235 103.012 42.5795 103.272 42.4035 103.608C42.2275 103.936 42.1395 104.32 42.1395 104.76V104.88L46.2075 104.112C46.1035 103.648 45.8715 103.272 45.5115 102.984C45.1515 102.696 44.7195 102.552 44.2155 102.552ZM50.7832 108.072C50.2632 108.072 49.7632 108.004 49.2832 107.868C48.8032 107.724 48.4272 107.544 48.1552 107.328L48.6352 106.416C48.9152 106.616 49.2552 106.776 49.6552 106.896C50.0552 107.016 50.4592 107.076 50.8672 107.076C51.8752 107.076 52.3792 106.788 52.3792 106.212C52.3792 106.02 52.3112 105.868 52.1752 105.756C52.0392 105.644 51.8672 105.564 51.6592 105.516C51.4592 105.46 51.1712 105.4 50.7952 105.336C50.2832 105.256 49.8632 105.164 49.5352 105.06C49.2152 104.956 48.9392 104.78 48.7072 104.532C48.4752 104.284 48.3592 103.936 48.3592 103.488C48.3592 102.912 48.5992 102.452 49.0792 102.108C49.5592 101.756 50.2032 101.58 51.0112 101.58C51.4352 101.58 51.8592 101.632 52.2832 101.736C52.7072 101.84 53.0552 101.98 53.3272 102.156L52.8352 103.068C52.3152 102.732 51.7032 102.564 50.9992 102.564C50.5112 102.564 50.1392 102.644 49.8832 102.804C49.6272 102.964 49.4992 103.176 49.4992 103.44C49.4992 103.648 49.5712 103.812 49.7152 103.932C49.8592 104.052 50.0352 104.14 50.2432 104.196C50.4592 104.252 50.7592 104.316 51.1432 104.388C51.6552 104.476 52.0672 104.572 52.3792 104.676C52.6992 104.772 52.9712 104.94 53.1952 105.18C53.4192 105.42 53.5312 105.756 53.5312 106.188C53.5312 106.764 53.2832 107.224 52.7872 107.568C52.2992 107.904 51.6312 108.072 50.7832 108.072ZM60.9709 101.64V110.328H59.8189V107.04C59.5549 107.376 59.2309 107.632 58.8469 107.808C58.4709 107.984 58.0549 108.072 57.5989 108.072C56.9829 108.072 56.4309 107.936 55.9429 107.664C55.4549 107.392 55.0709 107.012 54.7909 106.524C54.5189 106.028 54.3829 105.46 54.3829 104.82C54.3829 104.18 54.5189 103.616 54.7909 103.128C55.0709 102.64 55.4549 102.26 55.9429 101.988C56.4309 101.716 56.9829 101.58 57.5989 101.58C58.0709 101.58 58.5029 101.672 58.8949 101.856C59.2869 102.032 59.6109 102.296 59.8669 102.648V101.64H60.9709ZM57.6949 107.064C58.0949 107.064 58.4589 106.972 58.7869 106.788C59.1149 106.596 59.3709 106.332 59.5549 105.996C59.7389 105.652 59.8309 105.26 59.8309 104.82C59.8309 104.38 59.7349 103.992 59.5429 103.656C59.3589 103.32 59.1029 103.06 58.7749 102.876C58.4549 102.684 58.0949 102.588 57.6949 102.588C57.2869 102.588 56.9189 102.68 56.5909 102.864C56.2709 103.048 56.0149 103.312 55.8229 103.656C55.6389 103.992 55.5469 104.38 55.5469 104.82C55.5469 105.26 55.6389 105.652 55.8229 105.996C56.0149 106.332 56.2709 106.596 56.5909 106.788C56.9189 106.972 57.2869 107.064 57.6949 107.064ZM69.0786 101.64V108H67.9866V107.04C67.7546 107.368 67.4466 107.624 67.0626 107.808C66.6866 107.984 66.2746 108.072 65.8266 108.072C64.9786 108.072 64.3106 107.84 63.8226 107.376C63.3346 106.904 63.0906 106.212 63.0906 105.3V101.64H64.2426V105.168C64.2426 105.784 64.3906 106.252 64.6866 106.572C64.9826 106.884 65.4066 107.04 65.9586 107.04C66.5666 107.04 67.0466 106.856 67.3986 106.488C67.7506 106.12 67.9266 105.6 67.9266 104.928V101.64H69.0786ZM71.2717 101.64H72.4237V108H71.2717V101.64ZM71.8477 100.416C71.6237 100.416 71.4357 100.344 71.2837 100.2C71.1397 100.056 71.0677 99.88 71.0677 99.672C71.0677 99.464 71.1397 99.288 71.2837 99.144C71.4357 98.992 71.6237 98.916 71.8477 98.916C72.0717 98.916 72.2557 98.988 72.3997 99.132C72.5517 99.268 72.6277 99.44 72.6277 99.648C72.6277 99.864 72.5517 100.048 72.3997 100.2C72.2557 100.344 72.0717 100.416 71.8477 100.416ZM76.4473 108.072C75.9273 108.072 75.4273 108.004 74.9473 107.868C74.4673 107.724 74.0913 107.544 73.8193 107.328L74.2993 106.416C74.5793 106.616 74.9193 106.776 75.3193 106.896C75.7193 107.016 76.1233 107.076 76.5312 107.076C77.5393 107.076 78.0433 106.788 78.0433 106.212C78.0433 106.02 77.9753 105.868 77.8393 105.756C77.7033 105.644 77.5313 105.564 77.3233 105.516C77.1233 105.46 76.8353 105.4 76.4593 105.336C75.9473 105.256 75.5273 105.164 75.1993 105.06C74.8793 104.956 74.6033 104.78 74.3713 104.532C74.1393 104.284 74.0233 103.936 74.0233 103.488C74.0233 102.912 74.2633 102.452 74.7433 102.108C75.2233 101.756 75.8673 101.58 76.6753 101.58C77.0993 101.58 77.5233 101.632 77.9473 101.736C78.3713 101.84 78.7193 101.98 78.9913 102.156L78.4993 103.068C77.9793 102.732 77.3673 102.564 76.6633 102.564C76.1753 102.564 75.8033 102.644 75.5473 102.804C75.2913 102.964 75.1633 103.176 75.1633 103.44C75.1633 103.648 75.2353 103.812 75.3793 103.932C75.5233 104.052 75.6993 104.14 75.9073 104.196C76.1233 104.252 76.4233 104.316 76.8073 104.388C77.3193 104.476 77.7313 104.572 78.0433 104.676C78.3633 104.772 78.6353 104.94 78.8593 105.18C79.0833 105.42 79.1953 105.756 79.1953 106.188C79.1953 106.764 78.9473 107.224 78.4513 107.568C77.9633 107.904 77.2953 108.072 76.4473 108.072ZM86.635 101.64V108H85.531V106.992C85.275 107.344 84.951 107.612 84.559 107.796C84.167 107.98 83.735 108.072 83.263 108.072C82.647 108.072 82.095 107.936 81.607 107.664C81.119 107.392 80.735 107.012 80.455 106.524C80.183 106.028 80.047 105.46 80.047 104.82C80.047 104.18 80.183 103.616 80.455 103.128C80.735 102.64 81.119 102.26 81.607 101.988C82.095 101.716 82.647 101.58 83.263 101.58C83.719 101.58 84.139 101.668 84.523 101.844C84.907 102.012 85.227 102.264 85.483 102.6V101.64H86.635ZM83.359 107.064C83.759 107.064 84.123 106.972 84.451 106.788C84.779 106.596 85.035 106.332 85.219 105.996C85.403 105.652 85.495 105.26 85.495 104.82C85.495 104.38 85.403 103.992 85.219 103.656C85.035 103.312 84.779 103.048 84.451 102.864C84.123 102.68 83.759 102.588 83.359 102.588C82.951 102.588 82.583 102.68 82.255 102.864C81.935 103.048 81.679 103.312 81.487 103.656C81.303 103.992 81.211 104.38 81.211 104.82C81.211 105.26 81.303 105.652 81.487 105.996C81.679 106.332 81.935 106.596 82.255 106.788C82.583 106.972 82.951 107.064 83.359 107.064Z" fill="black"/>
<path d="M400 96L400 112" stroke="black" stroke-opacity="0.32" stroke-width="4" stroke-linecap="round"/>
<rect x="366" y="136" width="298" height="32" rx="8" fill="#02B08F"/>
<path d="M375.26 147.6H378.8C379.688 147.6 380.476 147.776 381.164 148.128C381.852 148.48 382.384 148.976 382.76 149.616C383.144 150.248 383.336 150.976 383.336 151.8C383.336 152.624 383.144 153.356 382.76 153.996C382.384 154.628 381.852 155.12 381.164 155.472C380.476 155.824 379.688 156 378.8 156H375.26V147.6ZM378.728 154.956C379.408 154.956 380.004 154.824 380.516 154.56C381.036 154.296 381.436 153.928 381.716 153.456C381.996 152.976 382.136 152.424 382.136 151.8C382.136 151.176 381.996 150.628 381.716 150.156C381.436 149.676 381.036 149.304 380.516 149.04C380.004 148.776 379.408 148.644 378.728 148.644H376.46V154.956H378.728ZM387.874 155.064C388.634 155.064 389.246 154.808 389.71 154.296L390.334 155.04C390.054 155.376 389.698 155.632 389.266 155.808C388.842 155.984 388.366 156.072 387.838 156.072C387.166 156.072 386.57 155.936 386.05 155.664C385.53 155.384 385.126 154.996 384.838 154.5C384.558 154.004 384.418 153.444 384.418 152.82C384.418 152.204 384.554 151.648 384.826 151.152C385.106 150.656 385.486 150.272 385.966 150C386.454 149.72 387.002 149.58 387.61 149.58C388.186 149.58 388.71 149.712 389.182 149.976C389.654 150.232 390.03 150.596 390.31 151.068C390.59 151.54 390.734 152.084 390.742 152.7L385.69 153.684C385.85 154.124 386.118 154.464 386.494 154.704C386.878 154.944 387.338 155.064 387.874 155.064ZM387.61 150.552C387.21 150.552 386.85 150.644 386.53 150.828C386.218 151.012 385.974 151.272 385.798 151.608C385.622 151.936 385.534 152.32 385.534 152.76V152.88L389.602 152.112C389.498 151.648 389.266 151.272 388.906 150.984C388.546 150.696 388.114 150.552 387.61 150.552ZM394.514 147.972C393.826 147.972 393.482 148.344 393.482 149.088V149.64H395.342V150.588H393.506V156H392.354V149.076C392.354 148.444 392.538 147.944 392.906 147.576C393.274 147.208 393.79 147.024 394.454 147.024C394.71 147.024 394.95 147.056 395.174 147.12C395.398 147.184 395.59 147.276 395.75 147.396L395.402 148.272C395.138 148.072 394.842 147.972 394.514 147.972ZM397.382 149.64H398.534V156H397.382V149.64ZM397.958 148.416C397.734 148.416 397.546 148.344 397.394 148.2C397.25 148.056 397.178 147.88 397.178 147.672C397.178 147.464 397.25 147.288 397.394 147.144C397.546 146.992 397.734 146.916 397.958 146.916C398.182 146.916 398.366 146.988 398.51 147.132C398.662 147.268 398.738 147.44 398.738 147.648C398.738 147.864 398.662 148.048 398.51 148.2C398.366 148.344 398.182 148.416 397.958 148.416ZM404.129 149.58C404.937 149.58 405.577 149.816 406.049 150.288C406.529 150.752 406.769 151.436 406.769 152.34V156H405.617V152.472C405.617 151.856 405.469 151.392 405.173 151.08C404.877 150.768 404.453 150.612 403.901 150.612C403.277 150.612 402.785 150.796 402.425 151.164C402.065 151.524 401.885 152.044 401.885 152.724V156H400.733V149.64H401.837V150.6C402.069 150.272 402.381 150.02 402.773 149.844C403.173 149.668 403.625 149.58 404.129 149.58ZM408.901 149.64H410.053V156H408.901V149.64ZM409.477 148.416C409.253 148.416 409.065 148.344 408.913 148.2C408.769 148.056 408.697 147.88 408.697 147.672C408.697 147.464 408.769 147.288 408.913 147.144C409.065 146.992 409.253 146.916 409.477 146.916C409.701 146.916 409.885 146.988 410.029 147.132C410.181 147.268 410.257 147.44 410.257 147.648C410.257 147.864 410.181 148.048 410.029 148.2C409.885 148.344 409.701 148.416 409.477 148.416ZM415.024 156.072C414.376 156.072 413.796 155.932 413.284 155.652C412.78 155.372 412.384 154.988 412.096 154.5C411.808 154.004 411.664 153.444 411.664 152.82C411.664 152.196 411.808 151.64 412.096 151.152C412.384 150.656 412.78 150.272 413.284 150C413.796 149.72 414.376 149.58 415.024 149.58C415.6 149.58 416.112 149.696 416.56 149.928C417.016 150.16 417.368 150.496 417.616 150.936L416.74 151.5C416.54 151.196 416.292 150.968 415.996 150.816C415.7 150.664 415.372 150.588 415.012 150.588C414.596 150.588 414.22 150.68 413.884 150.864C413.556 151.048 413.296 151.312 413.104 151.656C412.92 151.992 412.828 152.38 412.828 152.82C412.828 153.268 412.92 153.664 413.104 154.008C413.296 154.344 413.556 154.604 413.884 154.788C414.22 154.972 414.596 155.064 415.012 155.064C415.372 155.064 415.7 154.988 415.996 154.836C416.292 154.684 416.54 154.456 416.74 154.152L417.616 154.704C417.368 155.144 417.016 155.484 416.56 155.724C416.112 155.956 415.6 156.072 415.024 156.072ZM414.46 158.688C414.044 158.688 413.688 158.6 413.392 158.424L413.644 157.836C413.884 157.972 414.156 158.04 414.46 158.04C414.908 158.04 415.132 157.88 415.132 157.56C415.132 157.416 415.076 157.3 414.964 157.212C414.852 157.132 414.68 157.092 414.448 157.092H414.124L414.424 155.916H415.084L414.904 156.6C415.24 156.632 415.496 156.736 415.672 156.912C415.856 157.096 415.948 157.324 415.948 157.596C415.948 157.932 415.812 158.196 415.54 158.388C415.268 158.588 414.908 158.688 414.46 158.688ZM425.014 149.64V156H423.91V154.992C423.654 155.344 423.33 155.612 422.938 155.796C422.546 155.98 422.114 156.072 421.642 156.072C421.026 156.072 420.474 155.936 419.986 155.664C419.498 155.392 419.114 155.012 418.834 154.524C418.562 154.028 418.426 153.46 418.426 152.82C418.426 152.18 418.562 151.616 418.834 151.128C419.114 150.64 419.498 150.26 419.986 149.988C420.474 149.716 421.026 149.58 421.642 149.58C422.098 149.58 422.518 149.668 422.902 149.844C423.286 150.012 423.606 150.264 423.862 150.6V149.64H425.014ZM421.738 155.064C422.138 155.064 422.502 154.972 422.83 154.788C423.158 154.596 423.414 154.332 423.598 153.996C423.782 153.652 423.874 153.26 423.874 152.82C423.874 152.38 423.782 151.992 423.598 151.656C423.414 151.312 423.158 151.048 422.83 150.864C422.502 150.68 422.138 150.588 421.738 150.588C421.33 150.588 420.962 150.68 420.634 150.864C420.314 151.048 420.058 151.312 419.866 151.656C419.682 151.992 419.59 152.38 419.59 152.82C419.59 153.26 419.682 153.652 419.866 153.996C420.058 154.332 420.314 154.596 420.634 154.788C420.962 154.972 421.33 155.064 421.738 155.064ZM422.782 148.68C422.59 148.68 422.422 148.64 422.278 148.56C422.142 148.48 421.97 148.36 421.762 148.2C421.642 148.088 421.538 148.008 421.45 147.96C421.362 147.904 421.274 147.876 421.186 147.876C421.01 147.876 420.866 147.944 420.754 148.08C420.642 148.208 420.582 148.388 420.574 148.62H419.926C419.942 148.172 420.054 147.816 420.262 147.552C420.478 147.288 420.758 147.156 421.102 147.156C421.294 147.156 421.462 147.2 421.606 147.288C421.758 147.368 421.93 147.488 422.122 147.648C422.258 147.76 422.366 147.844 422.446 147.9C422.526 147.948 422.61 147.972 422.698 147.972C422.874 147.972 423.018 147.908 423.13 147.78C423.242 147.652 423.302 147.476 423.31 147.252H423.958C423.942 147.684 423.826 148.032 423.61 148.296C423.402 148.552 423.126 148.68 422.782 148.68ZM429.918 156.072C429.286 156.072 428.718 155.932 428.214 155.652C427.71 155.372 427.314 154.988 427.026 154.5C426.746 154.004 426.606 153.444 426.606 152.82C426.606 152.196 426.746 151.64 427.026 151.152C427.314 150.656 427.71 150.272 428.214 150C428.718 149.72 429.286 149.58 429.918 149.58C430.55 149.58 431.114 149.72 431.61 150C432.114 150.272 432.506 150.656 432.786 151.152C433.074 151.64 433.218 152.196 433.218 152.82C433.218 153.444 433.074 154.004 432.786 154.5C432.506 154.988 432.114 155.372 431.61 155.652C431.114 155.932 430.55 156.072 429.918 156.072ZM429.918 155.064C430.326 155.064 430.69 154.972 431.01 154.788C431.338 154.596 431.594 154.332 431.778 153.996C431.962 153.652 432.054 153.26 432.054 152.82C432.054 152.38 431.962 151.992 431.778 151.656C431.594 151.312 431.338 151.048 431.01 150.864C430.69 150.68 430.326 150.588 429.918 150.588C429.51 150.588 429.142 150.68 428.814 150.864C428.494 151.048 428.238 151.312 428.046 151.656C427.862 151.992 427.77 152.38 427.77 152.82C427.77 153.26 427.862 153.652 428.046 153.996C428.238 154.332 428.494 154.596 428.814 154.788C429.142 154.972 429.51 155.064 429.918 155.064Z" fill="white"/>
<path d="M656 144L656 160" stroke="white" stroke-opacity="0.4" stroke-width="4" stroke-linecap="round"/>
<rect x="152" y="136" width="85" height="32" rx="8" fill="#02B08F"/>
<path d="M161.26 147.6H164.8C165.688 147.6 166.476 147.776 167.164 148.128C167.852 148.48 168.384 148.976 168.76 149.616C169.144 150.248 169.336 150.976 169.336 151.8C169.336 152.624 169.144 153.356 168.76 153.996C168.384 154.628 167.852 155.12 167.164 155.472C166.476 155.824 165.688 156 164.8 156H161.26V147.6ZM164.728 154.956C165.408 154.956 166.004 154.824 166.516 154.56C167.036 154.296 167.436 153.928 167.716 153.456C167.996 152.976 168.136 152.424 168.136 151.8C168.136 151.176 167.996 150.628 167.716 150.156C167.436 149.676 167.036 149.304 166.516 149.04C166.004 148.776 165.408 148.644 164.728 148.644H162.46V154.956H164.728ZM173.874 155.064C174.634 155.064 175.246 154.808 175.71 154.296L176.334 155.04C176.054 155.376 175.698 155.632 175.266 155.808C174.842 155.984 174.366 156.072 173.838 156.072C173.166 156.072 172.57 155.936 172.05 155.664C171.53 155.384 171.126 154.996 170.838 154.5C170.558 154.004 170.418 153.444 170.418 152.82C170.418 152.204 170.554 151.648 170.826 151.152C171.106 150.656 171.486 150.272 171.966 150C172.454 149.72 173.002 149.58 173.61 149.58C174.186 149.58 174.71 149.712 175.182 149.976C175.654 150.232 176.03 150.596 176.31 151.068C176.59 151.54 176.734 152.084 176.742 152.7L171.69 153.684C171.85 154.124 172.118 154.464 172.494 154.704C172.878 154.944 173.338 155.064 173.874 155.064ZM173.61 150.552C173.21 150.552 172.85 150.644 172.53 150.828C172.218 151.012 171.974 151.272 171.798 151.608C171.622 151.936 171.534 152.32 171.534 152.76V152.88L175.602 152.112C175.498 151.648 175.266 151.272 174.906 150.984C174.546 150.696 174.114 150.552 173.61 150.552ZM180.514 147.972C179.826 147.972 179.482 148.344 179.482 149.088V149.64H181.342V150.588H179.506V156H178.354V149.076C178.354 148.444 178.538 147.944 178.906 147.576C179.274 147.208 179.79 147.024 180.454 147.024C180.71 147.024 180.95 147.056 181.174 147.12C181.398 147.184 181.59 147.276 181.75 147.396L181.402 148.272C181.138 148.072 180.842 147.972 180.514 147.972ZM183.382 149.64H184.534V156H183.382V149.64ZM183.958 148.416C183.734 148.416 183.546 148.344 183.394 148.2C183.25 148.056 183.178 147.88 183.178 147.672C183.178 147.464 183.25 147.288 183.394 147.144C183.546 146.992 183.734 146.916 183.958 146.916C184.182 146.916 184.366 146.988 184.51 147.132C184.662 147.268 184.738 147.44 184.738 147.648C184.738 147.864 184.662 148.048 184.51 148.2C184.366 148.344 184.182 148.416 183.958 148.416ZM190.129 149.58C190.937 149.58 191.577 149.816 192.049 150.288C192.529 150.752 192.769 151.436 192.769 152.34V156H191.617V152.472C191.617 151.856 191.469 151.392 191.173 151.08C190.877 150.768 190.453 150.612 189.901 150.612C189.277 150.612 188.785 150.796 188.425 151.164C188.065 151.524 187.885 152.044 187.885 152.724V156H186.733V149.64H187.837V150.6C188.069 150.272 188.381 150.02 188.773 149.844C189.173 149.668 189.625 149.58 190.129 149.58ZM194.901 149.64H196.053V156H194.901V149.64ZM195.477 148.416C195.253 148.416 195.065 148.344 194.913 148.2C194.769 148.056 194.697 147.88 194.697 147.672C194.697 147.464 194.769 147.288 194.913 147.144C195.065 146.992 195.253 146.916 195.477 146.916C195.701 146.916 195.885 146.988 196.029 147.132C196.181 147.268 196.257 147.44 196.257 147.648C196.257 147.864 196.181 148.048 196.029 148.2C195.885 148.344 195.701 148.416 195.477 148.416ZM201.024 156.072C200.376 156.072 199.796 155.932 199.284 155.652C198.78 155.372 198.384 154.988 198.096 154.5C197.808 154.004 197.664 153.444 197.664 152.82C197.664 152.196 197.808 151.64 198.096 151.152C198.384 150.656 198.78 150.272 199.284 150C199.796 149.72 200.376 149.58 201.024 149.58C201.6 149.58 202.112 149.696 202.56 149.928C203.016 150.16 203.368 150.496 203.616 150.936L202.74 151.5C202.54 151.196 202.292 150.968 201.996 150.816C201.7 150.664 201.372 150.588 201.012 150.588C200.596 150.588 200.22 150.68 199.884 150.864C199.556 151.048 199.296 151.312 199.104 151.656C198.92 151.992 198.828 152.38 198.828 152.82C198.828 153.268 198.92 153.664 199.104 154.008C199.296 154.344 199.556 154.604 199.884 154.788C200.22 154.972 200.596 155.064 201.012 155.064C201.372 155.064 201.7 154.988 201.996 154.836C202.292 154.684 202.54 154.456 202.74 154.152L203.616 154.704C203.368 155.144 203.016 155.484 202.56 155.724C202.112 155.956 201.6 156.072 201.024 156.072ZM200.46 158.688C200.044 158.688 199.688 158.6 199.392 158.424L199.644 157.836C199.884 157.972 200.156 158.04 200.46 158.04C200.908 158.04 201.132 157.88 201.132 157.56C201.132 157.416 201.076 157.3 200.964 157.212C200.852 157.132 200.68 157.092 200.448 157.092H200.124L200.424 155.916H201.084L200.904 156.6C201.24 156.632 201.496 156.736 201.672 156.912C201.856 157.096 201.948 157.324 201.948 157.596C201.948 157.932 201.812 158.196 201.54 158.388C201.268 158.588 200.908 158.688 200.46 158.688ZM211.014 149.64V156H209.91V154.992C209.654 155.344 209.33 155.612 208.938 155.796C208.546 155.98 208.114 156.072 207.642 156.072C207.026 156.072 206.474 155.936 205.986 155.664C205.498 155.392 205.114 155.012 204.834 154.524C204.562 154.028 204.426 153.46 204.426 152.82C204.426 152.18 204.562 151.616 204.834 151.128C205.114 150.64 205.498 150.26 205.986 149.988C206.474 149.716 207.026 149.58 207.642 149.58C208.098 149.58 208.518 149.668 208.902 149.844C209.286 150.012 209.606 150.264 209.862 150.6V149.64H211.014ZM207.738 155.064C208.138 155.064 208.502 154.972 208.83 154.788C209.158 154.596 209.414 154.332 209.598 153.996C209.782 153.652 209.874 153.26 209.874 152.82C209.874 152.38 209.782 151.992 209.598 151.656C209.414 151.312 209.158 151.048 208.83 150.864C208.502 150.68 208.138 150.588 207.738 150.588C207.33 150.588 206.962 150.68 206.634 150.864C206.314 151.048 206.058 151.312 205.866 151.656C205.682 151.992 205.59 152.38 205.59 152.82C205.59 153.26 205.682 153.652 205.866 153.996C206.058 154.332 206.314 154.596 206.634 154.788C206.962 154.972 207.33 155.064 207.738 155.064ZM208.782 148.68C208.59 148.68 208.422 148.64 208.278 148.56C208.142 148.48 207.97 148.36 207.762 148.2C207.642 148.088 207.538 148.008 207.45 147.96C207.362 147.904 207.274 147.876 207.186 147.876C207.01 147.876 206.866 147.944 206.754 148.08C206.642 148.208 206.582 148.388 206.574 148.62H205.926C205.942 148.172 206.054 147.816 206.262 147.552C206.478 147.288 206.758 147.156 207.102 147.156C207.294 147.156 207.462 147.2 207.606 147.288C207.758 147.368 207.93 147.488 208.122 147.648C208.258 147.76 208.366 147.844 208.446 147.9C208.526 147.948 208.61 147.972 208.698 147.972C208.874 147.972 209.018 147.908 209.13 147.78C209.242 147.652 209.302 147.476 209.31 147.252H209.958C209.942 147.684 209.826 148.032 209.61 148.296C209.402 148.552 209.126 148.68 208.782 148.68ZM215.918 156.072C215.286 156.072 214.718 155.932 214.214 155.652C213.71 155.372 213.314 154.988 213.026 154.5C212.746 154.004 212.606 153.444 212.606 152.82C212.606 152.196 212.746 151.64 213.026 151.152C213.314 150.656 213.71 150.272 214.214 150C214.718 149.72 215.286 149.58 215.918 149.58C216.55 149.58 217.114 149.72 217.61 150C218.114 150.272 218.506 150.656 218.786 151.152C219.074 151.64 219.218 152.196 219.218 152.82C219.218 153.444 219.074 154.004 218.786 154.5C218.506 154.988 218.114 155.372 217.61 155.652C217.114 155.932 216.55 156.072 215.918 156.072ZM215.918 155.064C216.326 155.064 216.69 154.972 217.01 154.788C217.338 154.596 217.594 154.332 217.778 153.996C217.962 153.652 218.054 153.26 218.054 152.82C218.054 152.38 217.962 151.992 217.778 151.656C217.594 151.312 217.338 151.048 217.01 150.864C216.69 150.68 216.326 150.588 215.918 150.588C215.51 150.588 215.142 150.68 214.814 150.864C214.494 151.048 214.238 151.312 214.046 151.656C213.862 151.992 213.77 152.38 213.77 152.82C213.77 153.26 213.862 153.652 214.046 153.996C214.238 154.332 214.494 154.596 214.814 154.788C215.142 154.972 215.51 155.064 215.918 155.064Z" fill="white"/>
<path d="M229 144L229 160" stroke="white" stroke-opacity="0.4" stroke-width="4" stroke-linecap="round"/>
</svg>
